<?xml version="1.0" standalone="no"?><!DOCTYPE svg PUBLIC "-//W3C//DTD SVG 1.1//EN" "http://www.w3.org/Graphics/SVG/1.1/DTD/svg11.dtd"><svg t="1663598100051" class="icon" viewBox="0 0 1024 1024" version="1.1" xmlns="http://www.w3.org/2000/svg" p-id="2600" xmlns:xlink="http://www.w3.org/1999/xlink" width="200" height="200"><path d="M512.093091 931.048727l373.201454 0.558546-0.09309 46.545454-373.15491-0.558545 0.046546-46.545455z m23.272727 23.272728q0 2.327273-0.465454 4.561454t-1.303273 4.375273q-0.930909 2.094545-2.187636 4.002909-1.256727 1.861818-2.885819 3.537454-1.629091 1.629091-3.537454 2.885819-1.861818 1.256727-4.002909 2.141091-2.094545 0.884364-4.375273 1.349818-2.234182 0.465455-4.514909 0.465454-2.327273 0-4.561455-0.465454t-4.375272-1.349818q-2.094545-0.884364-4.002909-2.141091-1.908364-1.256727-3.537455-2.885819-1.629091-1.629091-2.885818-3.537454-1.256727-1.908364-2.141091-4.002909-0.930909-2.141091-1.349818-4.375273-0.465455-2.280727-0.465455-4.561454 0-2.327273 0.465455-4.51491 0.465455-2.280727 1.349818-4.375272 0.884364-2.141091 2.141091-4.049455 1.256727-1.861818 2.885818-3.490909 1.629091-1.629091 3.537455-2.932364 1.861818-1.256727 4.002909-2.14109 2.141091-0.884364 4.375272-1.303273 2.234182-0.465455 4.561455-0.465455 2.280727 0 4.514909 0.465455 2.280727 0.465455 4.375273 1.303273 2.141091 0.930909 4.002909 2.14109 1.908364 1.303273 3.537454 2.932364 1.629091 1.582545 2.885819 3.490909 1.303273 1.908364 2.187636 4.049455 0.837818 2.094545 1.303273 4.375272 0.465455 2.234182 0.465454 4.51491z m373.154909 0.558545q0 2.327273-0.465454 4.514909-0.465455 2.280727-1.303273 4.375273-0.930909 2.141091-2.141091 4.049454-1.303273 1.861818-2.932364 3.490909-1.582545 1.629091-3.490909 2.932364-1.908364 1.256727-4.049454 2.141091-2.094545 0.884364-4.375273 1.303273-2.234182 0.465455-4.514909 0.465454-2.327273 0-4.561455-0.465454t-4.375272-1.303273q-2.094545-0.884364-4.002909-2.141091-1.861818-1.303273-3.537455-2.932364-1.629091-1.582545-2.885818-3.490909-1.256727-1.908364-2.141091-4.049454-0.884364-2.094545-1.349818-4.375273-0.465455-2.234182-0.465455-4.514909 0-2.327273 0.465455-4.561455t1.349818-4.328727q0.884364-2.141091 2.141091-4.049454 1.256727-1.861818 2.885818-3.537455 1.629091-1.582545 3.537455-2.885818 1.908364-1.256727 4.002909-2.141091 2.141091-0.884364 4.375272-1.349818 2.280727-0.465455 4.561455-0.465455t4.514909 0.465455q2.280727 0.465455 4.375273 1.349818 2.141091 0.884364 4.049454 2.141091 1.861818 1.303273 3.490909 2.885818 1.629091 1.629091 2.932364 3.537455 1.256727 1.908364 2.141091 4.049454 0.884364 2.094545 1.303273 4.328727 0.465455 2.280727 0.465454 4.561455z" fill="#FF2222" p-id="2601"/><path d="M977.454545 512c0 257.070545-208.384 465.454545-465.454545 465.454545S46.545455 769.070545 46.545455 512 254.929455 46.545455 512 46.545455s465.454545 208.384 465.454545 465.454545z m-46.545454 0q0-79.918545-29.416727-154.205091-31.930182-80.663273-93.277091-142.010182t-142.010182-93.277091Q591.918545 93.090909 512 93.090909t-154.205091 29.416727q-80.663273 31.930182-142.010182 93.277091T122.507636 357.794909Q93.090909 432.081455 93.090909 512t29.416727 154.205091q31.930182 80.663273 93.277091 142.010182t142.010182 93.277091Q432.081455 930.909091 512 930.909091t154.205091-29.416727q80.663273-31.930182 142.010182-93.277091t93.277091-142.010182Q930.909091 591.918545 930.909091 512z" fill="#000000" p-id="2602"/><path d="M488.820364 372.363636a116.363636 116.363636 0 1 1-232.727273 0 116.363636 116.363636 0 0 1 232.727273 0z m-46.545455 0q0-28.904727-20.48-49.338181-20.433455-20.48-49.338182-20.48-28.951273 0-49.384727 20.48-20.48 20.433455-20.48 49.338181t20.48 49.338182q20.48 20.48 49.338182 20.48 28.951273 0 49.384727-20.48 20.48-20.433455 20.48-49.338182zM768.093091 372.363636a116.363636 116.363636 0 1 1-232.727273 0 116.363636 116.363636 0 0 1 232.727273 0z m-46.545455 0q0-28.904727-20.48-49.338181-20.433455-20.48-49.338181-20.48-28.951273 0-49.384728 20.48-20.48 20.433455-20.48 49.338181t20.48 49.338182q20.48 20.48 49.338182 20.48 28.951273 0 49.384727-20.48 20.48-20.433455 20.48-49.338182zM488.820364 651.636364a116.363636 116.363636 0 1 1-232.727273 0 116.363636 116.363636 0 0 1 232.727273 0z m-46.545455 0q0-28.904727-20.48-49.338182-20.433455-20.48-49.338182-20.48-28.951273 0-49.384727 20.48-20.48 20.433455-20.48 49.338182t20.48 49.338181q20.48 20.48 49.338182 20.48 28.951273 0 49.384727-20.48 20.48-20.433455 20.48-49.338181zM768.093091 651.636364a116.363636 116.363636 0 1 1-232.727273 0 116.363636 116.363636 0 0 1 232.727273 0z m-46.545455 0q0-28.904727-20.48-49.338182-20.433455-20.48-49.338181-20.48-28.951273 0-49.384728 20.48-20.48 20.433455-20.48 49.338182t20.48 49.338181q20.48 20.48 49.338182 20.48 28.951273 0 49.384727-20.48 20.48-20.433455 20.48-49.338181z" fill="#000000" p-id="2603"/></svg>